<?xml version="1.0" encoding="UTF-8" standalone="no"?>
<!DOCTYPE svg PUBLIC "-//W3C//DTD SVG 1.1//EN" "http://www.w3.org/Graphics/SVG/1.1/DTD/svg11.dtd">
<svg width="100%" height="100%" viewBox="0 0 24 24" version="1.1" xmlns="http://www.w3.org/2000/svg" xmlns:xlink="http://www.w3.org/1999/xlink" xml:space="preserve" xmlns:serif="http://www.serif.com/" style="fill-rule:evenodd;clip-rule:evenodd;stroke-linejoin:round;stroke-miterlimit:2;">
    <g transform="matrix(1,0,0,1,-808.087,-310.777)">
        <path d="M818.087,320.777L818.087,312.694C818.087,311.636 818.946,310.777 820.004,310.777C821.062,310.777 821.921,311.636 821.921,312.694L821.921,320.777L830.004,320.777C831.062,320.777 831.921,321.636 831.921,322.694C831.921,323.752 831.062,324.611 830.004,324.611L821.921,324.611L821.921,332.694C821.921,333.752 821.062,334.611 820.004,334.611C818.946,334.611 818.087,333.752 818.087,332.694L818.087,324.611L810.004,324.611C808.946,324.611 808.087,323.752 808.087,322.694C808.087,321.636 808.946,320.777 810.004,320.777L818.087,320.777Z" style="fill:white;"/>
    </g>
</svg>
